<?xml version="1.0" standalone="no"?>
<!DOCTYPE svg PUBLIC "-//W3C//DTD SVG 20010904//EN"
 "http://www.w3.org/TR/2001/REC-SVG-20010904/DTD/svg10.dtd">
<svg version="1.0" xmlns="http://www.w3.org/2000/svg"
 width="425.000000pt" height="177.000000pt" viewBox="0 0 425.000000 177.000000"
 preserveAspectRatio="xMidYMid meet">
<metadata>
Created by potrace 1.16, written by Peter Selinger 2001-2019
</metadata>
<g transform="translate(0.000000,177.000000) scale(0.100000,-0.100000)"
fill="#000000" stroke="none">
<path d="M1517 1332 c-26 -26 -47 -56 -47 -65 0 -23 89 -107 112 -107 26 0
108 83 108 108 0 27 -82 112 -107 112 -10 0 -40 -22 -66 -48z"/>
<path d="M3078 1111 c-99 -32 -168 -93 -218 -192 -30 -58 -33 -72 -33 -164 -1
-99 -1 -102 39 -175 45 -83 130 -162 194 -180 19 -5 163 -10 320 -10 280 0
286 1 336 24 69 32 127 86 166 154 28 50 32 65 36 158 5 122 -11 186 -67 260
-47 62 -100 99 -180 124 -56 18 -89 20 -300 19 -199 0 -245 -3 -293 -18z m574
-152 c86 -44 121 -102 122 -204 1 -80 -16 -121 -70 -171 -52 -48 -88 -54 -335
-54 -215 0 -226 1 -275 24 -134 62 -165 254 -59 361 60 59 87 65 343 65 217 0
236 -1 274 -21z"/>
<path d="M1549 1108 c-46 -15 -49 -37 -49 -366 0 -358 -1 -352 82 -352 37 0
54 5 64 18 20 25 19 649 0 675 -18 24 -65 36 -97 25z"/>
<path d="M1785 1108 c-44 -25 -56 -67 -34 -111 7 -12 51 -78 98 -147 47 -69
91 -133 96 -142 22 -37 140 -205 172 -246 49 -60 77 -72 176 -72 115 0 123 6
250 191 292 426 287 417 287 459 0 35 -5 43 -32 60 -37 23 -69 20 -96 -8 -21
-22 -102 -139 -102 -147 0 -3 -11 -18 -25 -33 -14 -15 -25 -30 -25 -35 0 -10
-191 -285 -218 -314 -12 -13 -32 -23 -45 -23 -28 0 -47 20 -113 115 -26 39
-51 72 -56 73 -4 2 -8 8 -8 12 0 5 -27 48 -60 95 -33 47 -60 87 -60 90 0 2
-25 40 -56 84 -74 108 -101 126 -149 99z"/>
<path d="M347 1092 c-22 -24 -22 -80 1 -113 9 -15 30 -46 46 -70 16 -24 32
-46 35 -49 3 -3 51 -72 106 -155 54 -82 102 -152 106 -155 3 -3 12 -16 18 -28
19 -37 82 -102 112 -118 18 -9 59 -14 112 -14 l85 0 51 46 c29 26 59 61 68 78
9 17 58 91 110 164 51 73 93 135 93 138 0 3 5 10 10 17 50 59 120 180 120 206
0 67 -91 98 -138 48 -12 -13 -22 -27 -22 -31 0 -9 -52 -80 -62 -84 -5 -2 -8
-8 -8 -13 0 -9 -48 -88 -60 -99 -14 -13 -80 -111 -80 -119 0 -5 -3 -11 -7 -13
-11 -4 -55 -67 -73 -102 -22 -44 -69 -86 -94 -86 -36 0 -40 5 -182 207 -29 43
-63 94 -74 113 -11 19 -53 82 -93 140 -73 105 -73 105 -118 108 -34 2 -49 -2
-62 -16z"/>
</g>
</svg>
